# xmcd
#
# Track frame offsets:
# 150
# 12534
# 25801
# 35843
# 49004
# 62461
# 75622
# 88448
# 104011
# 115787
# 127871
# 140068
# 153439
# 165635
# 182429
# 195387
# 207048
# 220117
# 234329
# 245900
#
# Disc length: 3450 seconds
#
#
# Revision: 0
# Processed by: cddbd v1.4PL0 Copyright (c) Steve Scherf et al.
# Submitted via: FreeRIP 2.00 
#
DISCID=130d7814
DTITLE=Merle Haggard - Songs I'll Always Sing
DYEAR=1977
DGENRE=Country
TTITLE0=Okie From Muskogee
TTITLE1=Emptiest Arms In The World
TTITLE2=Mama Tried
TTITLE3=Swinging Doors
TTITLE4=Uncle Lem
TTITLE5=The Fightin' Side Of Me
TTITLE6=Sing Me Back Home
TTITLE7=Silver Wings
TTITLE8=Sing A Sad Song
TTITLE9=Honky Tonk Night Time Man
TTITLE10=Kentucky Gambler
TTITLE11=I'm A Lonesome Fugitive
TTITLE12=Things Aren't Funny Anymore
TTITLE13=Daddy Frank (The Guitar Man)
TTITLE14=I Forget You Every Day (Live)
TTITLE15=Workin' Man Blues
TTITLE16=Love And Honor
TTITLE17=Branded Man
TTITLE18=Someday We'll Look Back
TTITLE19=I Take A Lot Of Pride In What I Am
EXTD=Capitol SLB 8086
EXTT0=
EXTT1=
EXTT2=
EXTT3=
EXTT4=
EXTT5=
EXTT6=
EXTT7=
EXTT8=
EXTT9=
EXTT10=
EXTT11=
EXTT12=
EXTT13=
EXTT14=
EXTT15=
EXTT16=
EXTT17=
EXTT18=
EXTT19=
PLAYORDER=
